<?xml version="1.0" encoding="utf-8"?>
<svg xmlns="http://www.w3.org/2000/svg" viewBox="0 0 1200 900" width="100%" height="100%">
  <defs>
    <style>
      .wall { stroke: #1a1a1a; stroke-width: 2.5px; fill: none; stroke-linecap: round; stroke-linejoin: round; }
      .thin-wall { stroke: #333333; stroke-width: 1.5px; fill: none; }
      .door-gap { stroke: #FFFFFF; stroke-width: 6px; fill: none; }
      .door-swing { stroke: #1565C0; stroke-width: 1.5px; fill: none; stroke-dasharray: 2 2; }
      .stairs { stroke: #555555; stroke-width: 1px; }
      
      /* Navigation/Sensor Nodes */
      .dot-yellow-door { fill: #FFEB3B; stroke: #F57F17; stroke-width: 1.5px; }
      .dot-red-alert { fill: #D32F2F; stroke: #990000; stroke-width: 1px; }
      .dot-blue-open { fill: #3F51B5; stroke: #1A237E; stroke-width: 1px; }
      .dot-green { fill: #4CAF50; stroke: #1B5E20; stroke-width: 1px; }
      
      /* Typography */
      .room-label { font-family: 'Helvetica Neue', Arial, sans-serif; font-size: 11px; font-weight: bold; fill: #222222; text-anchor: middle; letter-spacing: 0.5px; }
      .sub-label { font-family: 'Helvetica Neue', Arial, sans-serif; font-size: 9px; fill: #555555; text-anchor: middle; }
    </style>
  </defs>
  <rect width="1200" height="900" fill="#FFFFFF" x="-12.276" y="-12.276"/>
  <path d="M 50,50 L 1150,50 L 1150,850 L 50,850 Z" class="wall"/>
  <line x1="50" y1="700" x2="1150" y2="700" class="wall"/>
  <line x1="220" y1="700" x2="220" y2="850" class="wall"/>
  <line x1="390" y1="700" x2="390" y2="850" class="wall"/>
  <line x1="560" y1="700" x2="560" y2="850" class="wall"/>
  <line x1="730" y1="700" x2="730" y2="850" class="wall"/>
  <line x1="900" y1="700" x2="900" y2="850" class="wall"/>
  <line x1="1020" y1="700" x2="1020" y2="850" class="wall"/>
  <line x1="50" y1="230" x2="1150" y2="230" class="wall"/>
  <line x1="225" y1="50" x2="225" y2="230" class="wall"/>
  <line x1="140" y1="50" x2="140" y2="150" class="wall"/>
  <line x1="50" y1="150" x2="225" y2="150" class="wall"/>
  <line x1="840" y1="50" x2="840" y2="260" class="wall"/>
  <line x1="930" y1="50" x2="930" y2="230" class="wall"/>
  <line x1="930" y1="140" x2="1150" y2="140" class="wall"/>
  <line x1="1040" y1="50" x2="1040" y2="140" class="wall"/>
  <path d="M 50,270 L 210,270 L 210,430 L 50,430" class="wall"/>
  <path d="M 50,530 L 210,530 L 210,650 L 50,650" class="wall"/>
  <line x1="150" y1="650" x2="150" y2="700" class="wall"/>
  <line x1="50" y1="650" x2="150" y2="650" class="wall"/>
  <path d="M 1150,270 L 980,270 L 980,440 L 1150,440" class="wall"/>
  <path d="M 1150,540 L 980,540 L 980,700" class="wall"/>
  <rect x="320" y="320" width="560" height="260" class="wall"/>
  <line x1="320" y1="320" x2="880" y2="580" stroke="#b0b0b0" stroke-width="1" stroke-dasharray="4 4"/>
  <line x1="320" y1="580" x2="880" y2="320" stroke="#b0b0b0" stroke-width="1" stroke-dasharray="4 4"/>
  <rect x="290" y="350" width="30" height="200" class="wall" fill="#f5f5f5"/>
  <line x1="290" y1="400" x2="320" y2="400" class="thin-wall"/>
  <line x1="290" y1="450" x2="320" y2="450" class="thin-wall"/>
  <line x1="290" y1="500" x2="320" y2="500" class="thin-wall"/>
  <rect x="880" y="350" width="30" height="200" class="wall" fill="#f5f5f5"/>
  <line x1="880" y1="400" x2="910" y2="400" class="thin-wall"/>
  <line x1="880" y1="450" x2="910" y2="450" class="thin-wall"/>
  <line x1="880" y1="500" x2="910" y2="500" class="thin-wall"/>
  <g class="door-gap">
    <line x1="180" y1="700" x2="210" y2="700"/>
    <line x1="350" y1="700" x2="380" y2="700"/>
    <line x1="520" y1="700" x2="550" y2="700"/>
    <line x1="690" y1="700" x2="720" y2="700"/>
    <line x1="860" y1="700" x2="890" y2="700"/>
    <line x1="900" y1="715" x2="900" y2="745"/>
    <line x1="980" y1="620" x2="980" y2="650"/>
    <line x1="200" y1="230" x2="220" y2="230"/>
    <line x1="270" y1="230" x2="300" y2="230"/>
    <line x1="570" y1="230" x2="600" y2="230"/>
    <line x1="800" y1="230" x2="830" y2="230"/>
    <line x1="210" y1="390" x2="210" y2="420"/>
    <line x1="980" y1="390" x2="980" y2="420"/>
  </g>
  <g class="door-swing">
    <path d="M 180,700 A 30,30 0 0,1 210,730"/>
    <path d="M 350,700 A 30,30 0 0,1 380,730"/>
    <path d="M 520,700 A 30,30 0 0,1 550,730"/>
    <path d="M 690,700 A 30,30 0 0,1 720,730"/>
    <path d="M 860,700 A 30,30 0 0,1 890,730"/>
    <path d="M 900,745 A 30,30 0 0,1 930,745"/>
    <path d="M 950,650 A 30,30 0 0,1 980,650"/>
  </g>
  <g class="stairs">
    <line x1="55" y1="540" x2="140" y2="540"/>
    <line x1="55" y1="550" x2="140" y2="550"/>
    <line x1="55" y1="560" x2="140" y2="560"/>
    <line x1="55" y1="570" x2="140" y2="570"/>
    <line x1="55" y1="580" x2="140" y2="580"/>
    <line x1="55" y1="590" x2="140" y2="590"/>
    <line x1="55" y1="600" x2="140" y2="600"/>
    <line x1="55" y1="610" x2="140" y2="610"/>
    <line x1="1060" y1="550" x2="1145" y2="550"/>
    <line x1="1060" y1="560" x2="1145" y2="560"/>
    <line x1="1060" y1="570" x2="1145" y2="570"/>
    <line x1="1060" y1="580" x2="1145" y2="580"/>
    <line x1="1060" y1="590" x2="1145" y2="590"/>
    <line x1="1060" y1="600" x2="1145" y2="600"/>
    <line x1="1060" y1="610" x2="1145" y2="610"/>
  </g>
  <text x="540" y="110" class="room-label" style="white-space: pre;">CANTEEN A</text>
  <text x="180" y="100" class="room-label" style="white-space: pre;">KITCHEN</text>
  <text x="130" y="350" class="room-label" style="white-space: pre;">UNASSIGNED</text>
  <text x="965" y="90" class="room-label" style="white-space: pre;">GIRLS ROOM</text>
  <text x="1085" y="90" class="room-label" style="white-space: pre;">GIRLS TOILET</text>
  <text x="1065" y="350" class="room-label" style="white-space: pre;">PHYSICS LAB-1</text>
  <text x="1065" y="620" class="room-label" style="font-size: 13px; white-space: pre;">MERGED HEAD OFFICE</text>
  <text x="100" y="680" class="room-label" style="font-size: 9px; white-space: pre;">STORES</text>
  <text x="125" y="780" class="room-label" style="white-space: pre;">CLASS ROOM 1</text>
  <text x="290" y="780" class="room-label" style="white-space: pre;">CLASS ROOM 2</text>
  <text x="470" y="780" class="room-label" style="white-space: pre;">CLASS ROOM 4</text>
  <text x="640" y="780" class="room-label" style="white-space: pre;">CLASS ROOM 5</text>
  <text x="810" y="780" class="room-label" style="white-space: pre;">CLASS ROOM 6</text>
  <text x="960" y="780" class="room-label" style="white-space: pre;">CLASS ROOM 7</text>
  <g>
    <circle cx="195" cy="700" r="9" class="dot-yellow-door"/>
    <circle cx="365" cy="700" r="9" class="dot-yellow-door"/>
    <circle cx="535" cy="700" r="9" class="dot-yellow-door"/>
    <circle cx="705" cy="700" r="9" class="dot-yellow-door"/>
    <circle cx="875" cy="700" r="9" class="dot-yellow-door"/>
    <circle cx="900" cy="730" r="9" class="dot-yellow-door"/>
    <circle cx="980" cy="635" r="9" class="dot-yellow-door"/>
    <circle cx="210" cy="230" r="9" class="dot-yellow-door"/>
    <circle cx="285" cy="230" r="9" class="dot-yellow-door"/>
    <circle cx="585" cy="230" r="9" class="dot-yellow-door"/>
    <circle cx="815" cy="230" r="9" class="dot-yellow-door"/>
    <circle cx="210" cy="405" r="9" class="dot-yellow-door"/>
    <circle cx="980" cy="405" r="9" class="dot-yellow-door"/>
  </g>
  <g class="dot-blue-open" style="" transform="matrix(1.065369, 0, 0, 0.46157, -6.732961, 247.00499)">
    <circle cx="160" cy="485" r="12" style="" transform="matrix(2.20031, 0, 0, 3.493435, -238.141388, -1189.368286)"/>
    <circle cx="1030" cy="485" r="12" style="" transform="matrix(2.020266, 0, 0, 4.740155, -1058.795654, -1769.093262)"/>
  </g>
  <g class="dot-red-alert" style="" transform="matrix(0.977511, 0, 0, 1.005769, 0.449774, -3.288284)">
    <circle cx="190" cy="50" r="12"/>
    <circle cx="270" cy="50" r="10"/>
    <circle cx="350" cy="50" r="10"/>
    <circle cx="430" cy="50" r="10"/>
    <circle cx="510" cy="50" r="10"/>
    <circle cx="590" cy="50" r="10"/>
    <circle cx="670" cy="50" r="10"/>
    <circle cx="750" cy="50" r="10"/>
    <circle cx="830" cy="50" r="10"/>
    <circle cx="910" cy="50" r="10"/>
    <circle cx="1140" cy="125" r="10" style="" transform="matrix(1.313967, 0, 0, 1.991721, -323.386505, -152.190994)"/>
    <circle cx="1170" cy="560" r="10" style="" transform="matrix(1.784915, 0, 0, 1.915435, -913.641479, -582.295776)"/>
    <circle cx="30" cy="455" r="10" style="" transform="matrix(2.02039, 0, 0, 1.915433, -12.558652, -395.161652)"/>
  </g>
  <g class="dot-green">
    <circle cx="275" cy="425" r="12" style="" transform="matrix(1.063939, 0, 0, 1, -9.143288, 0)"/>
    <circle cx="281.138" cy="486.535" r="12"/>
    <circle cx="918.862" cy="425" r="12"/>
    <circle cx="920.396" cy="485" r="12"/>
  </g>
</svg>