<?xml version="1.0" encoding="utf-8"?>
<svg xmlns="http://www.w3.org/2000/svg" viewBox="0 0 1100 1000" width="100%" height="100%">
  <defs>
    <style>
      .wall { fill: none; stroke: #1a1a1a; stroke-width: 2.5; stroke-linecap: round; stroke-linejoin: round; }
      .thin-wall { fill: none; stroke: #333333; stroke-width: 1.5; stroke-linecap: round; stroke-linejoin: round; }
      .door { fill: none; stroke: #333333; stroke-width: 1.2; }
      .stair-line { fill: none; stroke: #444444; stroke-width: 1.2; }
      .text-main { font-family: 'Arial', sans-serif; font-size: 13px; fill: #000000; font-weight: bold; }
      .text-title { font-family: 'Arial', sans-serif; font-size: 18px; fill: #000000; font-weight: bold; letter-spacing: 1px; }
      .text-large { font-family: 'Arial', sans-serif; font-size: 24px; fill: #111111; letter-spacing: 6px; font-weight: bold; }
      .text-small { font-family: 'Arial', sans-serif; font-size: 10px; fill: #222222; font-weight: bold; }
      .dot-blue { fill: #0099ff; stroke: #0055cc; stroke-width: 1; }
      .dot-green { fill: #76d72a; stroke: #4b9314; stroke-width: 1; }
      .dot-yellow { fill: #ffcc00; stroke: #cc9900; stroke-width: 1; }
      .window-block { fill: #ffffff; stroke: #333333; stroke-width: 1.5; }
    </style>
  </defs>
  <g id="outer-structure">
    <path class="wall" d="M 85 35 L 265 35 M 265.626 34.375 L 488.593 34.825 L 575 35 M 575.001 35 L 860 35 M 859.512 36.024 L 1035 35"/>
    <path class="wall" d="M 85 35 L 85 190 L 50 190 L 50 280 L 35 280 L 37.331 585.397 L 50.476 586.248"/>
    <path class="wall" d="M 1035 35 L 1035 190 L 1070 190 L 1070 280 L 1085 280 L 1085 396.832 L 1082.62 594.079"/>
    <path class="wall" d="M 50.071 580 L 49.427 581.117 L 50.544 712.235 L 50.071 710 L 50.071 915 L 1100.07 915 L 1100.07 710 L 1085.07 710 L 1085.07 580 L 1100.07 580"/>
    <rect x="135" y="32" width="100" height="6" class="window-block"/>
    <rect x="350" y="32" width="150" height="6" class="window-block"/>
    <rect x="650" y="32" width="150" height="6" class="window-block"/>
    <rect x="120" y="912" width="60" height="6" class="window-block"/>
    <rect x="260" y="912" width="60" height="6" class="window-block"/>
    <rect x="400" y="912" width="60" height="6" class="window-block"/>
    <rect x="550" y="912" width="60" height="6" class="window-block"/>
    <rect x="700" y="912" width="60" height="6" class="window-block"/>
    <rect x="840" y="912" width="60" height="6" class="window-block"/>
  </g>
  <g id="atrium">
    <rect x="285" y="340" width="545" height="260" class="wall"/>
    <text x="557" y="480" class="text-large" text-anchor="middle" style="white-space: pre;">ATRIUM</text>
  </g>
  <g id="upper-rooms">
    <path class="wall" d="M 265,35 L 265,250 L 575,250 L 575,35"/>
    <text x="420" y="140" class="text-main" text-anchor="middle" style="white-space: pre;">COMPUTER CENTER</text>
    <path class="wall" d="M 575,250 L 860,250 L 860,35"/>
    <text x="717" y="140" class="text-main" text-anchor="middle" style="white-space: pre;">DRAWING HALL</text>
  </g>
  <g id="lower-classrooms">
    <path class="wall" d="M 240,710 L 240,915"/>
    <path class="wall" d="M 385,710 L 385,915"/>
    <path class="wall" d="M 530,710 L 530,915"/>
    <path class="wall" d="M 675,710 L 675,915"/>
    <path class="wall" d="M 820,710 L 820,915"/>
    <path class="wall" d="M 988.785 711.763 L 987.903 916.763"/>
    <text x="145" y="820" class="text-main" text-anchor="middle" style="white-space: pre;">CLASS ROOM</text>
    <text x="312" y="820" class="text-main" text-anchor="middle" style="white-space: pre;">CLASS ROOM</text>
    <text x="457" y="820" class="text-main" text-anchor="middle" style="white-space: pre;">CLASS ROOM</text>
    <text x="602" y="820" class="text-main" text-anchor="middle" style="white-space: pre;">CLASS ROOM</text>
    <text x="747" y="820" class="text-main" text-anchor="middle" style="white-space: pre;">CLASS ROOM</text>
    <text x="885" y="820" class="text-main" text-anchor="middle" style="white-space: pre;">CLASS ROOM</text>
  </g>
  <g id="west-wing" style="" transform="matrix(0.809188, 0, 0, 1.119295, 6.678411, -22.666023)">
    <path class="wall" d="M 85 190 L 215 190 L 215 340.915" style=""/>
    <path class="thin-wall" d="M 38.098 340 L 215 340" style=""/>
    <text x="150" y="250" class="text-main" text-anchor="middle" style="white-space: pre;">PLACEMENT</text>
    <text x="150" y="268" class="text-main" text-anchor="middle" style="white-space: pre;">OFFICE</text>
    <path class="thin-wall" d="M 56.092 656.56 L 1171.42 653.204"/>
    <g id="stairwell-a"/>
    <g id="lifts-west" transform="matrix(1, 0, 0, 1, 8.869064, 13.464877)">
      <rect x="285" y="375" width="45" height="50" class="wall"/>
      <text x="307" y="400" class="text-small" text-anchor="middle" style="white-space: pre;">LIFT</text>
      <text x="307" y="412" class="text-small" text-anchor="middle" style="white-space: pre;">A</text>
      <rect x="285" y="435" width="45" height="50" class="wall"/>
      <text x="307" y="460" class="text-small" text-anchor="middle" style="white-space: pre;">LIFT</text>
      <text x="307" y="472" class="text-small" text-anchor="middle" style="white-space: pre;">A</text>
    </g>
  </g>
  <g id="east-wing">
    <path class="wall" d="M 1035 190 L 905 190 L 905 411.438"/>
    <path class="thin-wall" d="M 903.883 407.387 L 1084.34 406.27"/>
    <path class="wall" d="M 1096.82 582.235 L 895 580 L 895 710"/>
    <path class="thin-wall" d="M 949.118 708.695 L 1090.15 709.94"/>
    <text x="985" y="640" class="text-main" text-anchor="middle" style="white-space: pre;">HOD OFFICE</text>
    <g id="stairwell-b">
      <line x1="970" y1="465" x2="970" y2="465" class="stair-line"/>
    </g>
    <g id="lifts-east" transform="matrix(1, 0, 0, 1, 35.854557, 64.5382)">
      <rect x="800" y="375" width="45" height="50" class="wall"/>
      <text x="822" y="400" class="text-small" text-anchor="middle" style="white-space: pre;">LIFT</text>
      <text x="822" y="412" class="text-small" text-anchor="middle" style="white-space: pre;">B</text>
      <rect x="800" y="435" width="45" height="50" class="wall"/>
      <text x="822" y="460" class="text-small" text-anchor="middle" style="white-space: pre;">LIFT</text>
      <text x="822" y="472" class="text-small" text-anchor="middle" style="white-space: pre;">B</text>
    </g>
  </g>
  <g id="corridors">
    <text x="560" y="290" class="text-small" text-anchor="middle" letter-spacing="3" style="white-space: pre;">WIDE PASSAGE</text>
    <text x="560" y="665" class="text-small" text-anchor="middle" letter-spacing="3" style="white-space: pre;">WIDE PASSAGE</text>
  </g>
  <g id="interface-markers">
    <circle cx="76.269" cy="427.097" r="14" class="dot-blue" style="transform-origin: 84.464px 397.389px 0px;"/>
    <circle cx="75.244" cy="516.316" r="14" class="dot-blue"/>
    <circle cx="1045" cy="465" r="14" class="dot-blue"/>
    <circle cx="1047.05" cy="533.731" r="14" class="dot-blue"/>
    <circle cx="223.399" cy="440.908" r="15" class="dot-green" style="transform-origin: 229.14px 453.108px 0px;"/>
    <circle cx="226.269" cy="506.293" r="15" class="dot-green"/>
    <circle cx="898.684" cy="463.514" r="15" class="dot-green"/>
    <circle cx="894.586" cy="525.78" r="15" class="dot-green"/>
    <circle cx="285" cy="255" r="8" class="dot-yellow"/>
    <circle cx="535" cy="255" r="8" class="dot-yellow"/>
    <circle cx="600" cy="255" r="8" class="dot-yellow"/>
    <circle cx="820" cy="255" r="8" class="dot-yellow"/>
    <circle cx="225" cy="707.053" r="8" class="dot-yellow"/>
    <circle cx="371.282" cy="707.053" r="8" class="dot-yellow"/>
    <circle cx="515.641" cy="708.336" r="8" class="dot-yellow"/>
    <circle cx="660" cy="707.695" r="8" class="dot-yellow"/>
    <circle cx="804.359" cy="705.771" r="8" class="dot-yellow"/>
    <circle cx="896.215" cy="642.704" r="8" class="dot-yellow"/>
    <circle cx="895" cy="350" r="8" class="dot-yellow" style="" transform="matrix(1.51221, 0, 0, 1.64026, -449.208221, -261.994385)"/>
  </g>
  <g id="document-title">
    <text x="1085" y="965" class="text-title" text-anchor="end" style="white-space: pre;">SECOND FLOOR STRUCTURE</text>
    <line x1="800" y1="975" x2="1085" y2="975" stroke="#000000" stroke-width="2"/>
  </g>
  <path class="wall" d="M 207.099 584.495 L 51.24 587.994 L 51.094 712.261" style="stroke-width: 2.5px;"/>
  <path class="wall" d="M 204.107 584.988 L 204.107 710.671" style="stroke-width: 2.5px;"/>
  <path class="wall" d="M 204.107 584.988 L 204.107 710.671" style="stroke-width: 2.5px;"/>
  <path class="wall" d="M 204.107 584.988 L 204.107 710.671" style="stroke-width: 2.5px;"/>
  <path class="wall" d="M 204.107 584.988 L 204.107 710.671" style="stroke-width: 2.5px;"/>
  <path class="wall" d="M 204.107 584.988 L 204.107 710.671" style="stroke-width: 2.5px;"/>
</svg>